<?xml version="1.0" standalone="no"?><!DOCTYPE svg PUBLIC "-//W3C//DTD SVG 1.1//EN" "http://www.w3.org/Graphics/SVG/1.1/DTD/svg11.dtd"><svg t="1741869254667" class="icon" viewBox="0 0 1024 1024" version="1.1" xmlns="http://www.w3.org/2000/svg" p-id="3772" xmlns:xlink="http://www.w3.org/1999/xlink" width="200" height="200"><path d="M542.72 625.664c27.648 27.648 52.224 86.016 43.008 114.688-2.048 7.168-7.168 15.36-25.6 17.408l-17.408 3.072-2.048 17.408c-1.024 15.36-16.384 16.384-24.576 16.384-15.36 0-31.744-7.168-34.816-20.48l-4.096-15.36L460.8 757.76c-12.288-1.024-19.456-6.144-22.528-17.408-9.216-29.696 12.288-83.968 40.96-112.64 9.216 1.024 17.408 2.048 26.624 2.048 11.264-1.024 23.552-1.024 36.864-4.096m7.168-24.576c-11.264 2.048-27.648 4.096-43.008 4.096-11.264 0-22.528-1.024-32.768-4.096-56.32 43.008-93.184 169.984-14.336 179.2 5.12 24.576 31.744 37.888 57.344 37.888 22.528 0 45.056-11.264 47.104-36.864 87.04-10.24 36.864-136.192-14.336-180.224z m-35.84-18.432C593.92 583.68 661.504 520.192 631.808 471.04c-11.264-20.48-35.84-31.744-62.464-19.456 4.096-34.816-19.456-52.224-58.368-53.248-39.936 1.024-57.344 21.504-52.224 55.296-20.48-12.288-53.248-15.36-66.56 9.216-29.696 55.296 41.984 119.808 121.856 119.808z m-38.912-195.584c22.528-12.288 47.104-12.288 70.656-2.048 1.024-22.528 9.216-50.176 21.504-70.656s60.416-24.576 55.296-55.296c-10.24-39.936-46.08-30.72-63.488-30.72-20.48-29.696-70.656-34.816-94.208 0-22.528-6.144-57.344-6.144-63.488 27.648-5.12 30.72 40.96 37.888 56.32 58.368 12.288 22.528 16.384 41.984 17.408 72.704z m-95.232 260.096c-7.168 16.384-12.288 32.768-15.36 50.176-5.12 40.96-26.624 62.464-40.96 62.464-9.216 0-17.408-9.216-24.576-25.6l-5.12-11.264-12.288-1.024c-9.216-1.024-22.528-2.048-26.624-25.6 45.056-6.144 89.088-25.6 124.928-49.152m45.056-62.464c-29.696 31.744-114.688 88.064-191.488 88.064h-1.024c-2.048 34.816 7.168 65.536 47.104 70.656 11.264 26.624 27.648 39.936 46.08 39.936 27.648 0 57.344-32.768 63.488-82.944 2.048-31.744 22.528-67.584 60.416-104.448l-24.576-11.264z m-194.56-99.328c26.624 39.936 77.824 78.848 134.144 99.328-29.696 21.504-72.704 39.936-101.376 39.936-15.36 0-15.36-5.12-16.384-10.24v-27.648l-27.648 6.144c-2.048 0-4.096 1.024-5.12 1.024-14.336 0-17.408-12.288-19.456-19.456 0-6.144 1.024-20.48 24.576-24.576l29.696-5.12-13.312-27.648c-3.072-12.288-6.144-24.576-5.12-31.744m5.12-38.912c-32.768 14.336-34.816 45.056-19.456 78.848-63.488 10.24-51.2 89.088-2.048 89.088 4.096 0 6.144 0 10.24-1.024 0 24.576 16.384 32.768 39.936 32.768 46.08 0 119.808-39.936 145.408-75.776-77.824-9.216-156.672-74.752-174.08-123.904z m205.824-25.6c2.048-12.288 4.096-17.408 17.408-29.696-4.096-48.128-17.408-89.088-67.584-78.848-22.528-70.656-116.736-30.72-109.568 20.48-43.008 7.168-29.696 75.776-20.48 101.376 22.528 56.32 81.92 86.016 112.64 97.28-25.6-40.96-14.336-123.904 67.584-110.592z m201.728 226.304c35.84 21.504 80.896 41.984 124.928 47.104-4.096 22.528-17.408 24.576-26.624 25.6l-12.288 1.024-5.12 11.264c-6.144 16.384-15.36 25.6-24.576 25.6-14.336 0-35.84-21.504-40.96-62.464-2.048-14.336-6.144-30.72-15.36-48.128m-44.032-62.464l-22.528 11.264c36.864 35.84 57.344 72.704 60.416 104.448 6.144 50.176 35.84 82.944 63.488 82.944 16.384 0 34.816-11.264 46.08-39.936 39.936-5.12 50.176-35.84 47.104-70.656h-1.024c-77.824 0-163.84-56.32-193.536-88.064z m194.56-99.328c1.024 7.168-1.024 19.456-7.168 31.744l-12.288 27.648 29.696 5.12c22.528 4.096 24.576 17.408 24.576 24.576s-7.168 19.456-21.504 19.456c-1.024 0-4.096 0-5.12-1.024l-27.648-6.144V614.4c0 6.144 0 10.24-16.384 10.24-27.648 0-70.656-17.408-101.376-39.936 58.368-18.432 109.568-59.392 137.216-99.328m-5.12-38.912c-16.384 47.104-94.208 113.664-174.08 124.928 25.6 35.84 99.328 75.776 145.408 75.776 22.528 0 37.888-9.216 39.936-32.768 4.096 1.024 7.168 1.024 10.24 1.024 48.128 0 62.464-80.896-2.048-89.088 14.336-34.816 13.312-64.512-19.456-79.872z m-205.824-25.6c82.944-14.336 94.208 68.608 67.584 108.544 30.72-11.264 91.136-40.96 113.664-97.28 9.216-25.6 22.528-93.184-20.48-101.376 6.144-51.2-87.04-91.136-111.616-20.48-50.176-10.24-63.488 29.696-67.584 78.848 14.336 14.336 15.36 19.456 18.432 31.744z" p-id="3773"></path></svg>